<?xml version="1.0" encoding="UTF-8"?><svg id="Layer_1" xmlns="http://www.w3.org/2000/svg" width="1920" height="1080" viewBox="0 0 1920 1080"><defs><style>.cls-1{stroke-width:5px;}.cls-1,.cls-2,.cls-3{stroke-miterlimit:10;}.cls-1,.cls-3{fill:none;stroke:#DCE0E9;}.cls-2{fill:#fff;stroke:#fff;}.cls-3{stroke-width:2px;}</style></defs><rect class="cls-2" x="3.225" y="-.312" width="1920" height="1080" transform="translate(1926.449 1079.376) rotate(180)"/><g><path class="cls-1" d="m1996.391,143.71c-5.278,20.255-23.426,36.522-44.135,39.562-20.709,3.04-42.767-7.326-53.643-25.209-20.071-33.002-.425-76.835-11.557-113.822-9.715-32.278-43.317-54.102-77.013-55.018-33.696-.916-66.2,16.579-88.584,41.783-36.186,40.744-47.062,102.275-27.034,152.955,16.015,40.525,50.447,77.477,44.536,120.649-4.745,34.657-39.668,62.297-74.489,58.954-25.002-2.4-46.388-18.022-67.934-30.929-31.109-18.636-67.461-32.786-103.116-26.169-50.281,9.331-86.837,64.877-75.519,114.748,9.977,43.959,50.245,78.303,52.79,123.308,1.942,34.346-20.196,67.117-49.97,84.349-29.774,17.232-65.829,20.769-100.031,17.072-28.982-3.133-57.617-11.148-86.744-9.967-35.438,1.437-70.433,17.419-93.278,44.549-22.845,27.13-32.622,65.277-23.808,99.631,7.568,29.498,27.384,54.126,40.422,81.647,13.039,27.521,18.067,63.281-2.02,86.171-15.312,17.448-40.205,21.932-61.047,32.155-39.212,19.234-65.162,62.754-63.441,106.395"/><path class="cls-3" d="m1949.977,233.897c-24.079,13.417-55.258,13.043-79.008-.948-23.75-13.991-39.191-41.08-39.128-68.645.053-23.225,10.138-47.177,2.163-68.99-8.795-24.055-41.249-35.819-63.414-22.985-20.954,12.132-28.308,39.18-27.58,63.381.709,23.57,7.151,46.545,13.547,69.241,15.603,55.361,31.667,111.744,63.534,159.627,33.09,49.719,81.165,87.207,128.379,123.782"/><path class="cls-3" d="m1947.503,658.852c4.949-34.209.686-70.752-17.801-99.958-18.487-29.206-52.729-49.504-87.095-45.81-15.915,1.711-31.036,8.232-46.974,9.72s-34.485-3.999-40.76-18.724c-4.592-10.776-1.359-23.397-4.554-34.666-4.678-16.5-22.238-26.372-39.24-28.617s-34.165,1.306-51.283,2.351-35.691-.958-48.611-12.236c-5.314-4.638-9.323-10.563-14.121-15.732-12.023-12.954-29.478-20.985-47.148-20.638-17.67.347-35.178,9.412-44.826,24.22-11.847,18.185-10.877,42.277-3.564,62.712,8.233,23.007,24.006,43.247,44.306,56.85,20.366,13.648,44.939,20.709,63.641,36.562,28.607,24.249,40.853,66.788,74.985,82.325,24.459,11.133,52.801,4.823,79.674,4.724,35.136-.129,70.224,11.149,98.705,31.725,13.333,9.632,25.47,21.36,40.616,27.774,15.146,6.414,34.938,5.956,45.623-6.549"/><path class="cls-3" d="m1932.842,639.546c2.498-36.444-23.524-72.83-58.819-82.246-40.903-10.912-88.726,10.843-124.799-11.313-21.666-13.308-32.813-39.416-54.189-53.185-19.03-12.258-43.399-12.986-63.535-23.325-14.956-7.679-29.905-21.001-46.126-16.581-16.718,4.555-22.873,26.851-16.541,42.98,6.332,16.13,20.927,27.283,34.855,37.591,26.395,19.533,52.79,39.067,79.185,58.6,18.844,13.945,38.344,28.207,61.103,33.827,14.477,3.575,29.588,3.461,44.348,5.585,52.491,7.554,96.681,42.442,146.79,59.805"/><path class="cls-3" d="m1919.218,637.522c-11.676-22.183-32.234-39.528-56.066-47.303-25.231-8.231-52.7-5.885-78.63-11.543-22.572-4.925-43.764-16.029-60.662-31.784-19.739-18.404-38.354-45.043-65.278-43.186-4.014.277-8.349,1.479-10.62,4.8-4.403,6.439,1.764,14.737,7.626,19.883,44.636,39.182,97.809,68.588,154.725,85.566,23.7,7.07,48.317,12.125,70.088,23.86,22.701,12.237,43.513,32.002,69.302,31.961"/><path class="cls-3" d="m1205.98,1092.792c-17.171-12.422-17.784-38.686-8.942-57.947,8.842-19.261,24.663-34.308,36.587-51.828,23.113-33.958,30.054-81.725,7.199-115.857-10.049-15.007-24.793-26.182-36.553-39.89s-20.769-32.138-15.805-49.503c6.962-24.354,36.872-33.724,62.197-33.254,45.78.849,90.268,21.36,123.135,53.24,32.867,31.88,54.403,74.519,64.056,119.278,14.454,67.017-.178,143.773-51.385,189.358"/><path class="cls-3" d="m1558.065,1091.555c-25.248-24.264-40.266-58.852-40.755-93.866-.316-22.573,5.109-44.791,7.504-67.239,2.395-22.448,1.403-46.441-10.457-65.65-19.97-32.347-63.275-40.999-90.972-67.038-21.756-20.453-32.3-54.671-18.989-81.401,9.699-19.477,29.439-31.556,48.186-42.6,17.247-10.16,34.534-20.34,52.764-28.606,28.921-13.113,62.476-21.212,92.258-10.194,32.695,12.095,53.322,44.025,81.765,64.18,21.295,15.09,47.517,23.965,64.439,43.835,2.009,2.359,3.919,4.976,4.46,8.028,1.039,5.862-3.468,11.568-8.932,13.932s-11.645,2.183-17.595,1.96c-17.14-.642-34.281-1.285-51.421-1.927-3.09-.116-6.487-.134-8.872,1.834-5.521,4.553-.266,13.45,5.512,17.672,30.734,22.461,74.806,20.497,104.385,44.458,18.071,14.64,28.394,38.347,26.8,61.549-.848,12.343-4.818,24.253-6.594,36.497-4.229,29.149,4.934,60.271,25.376,81.476,20.442,21.205,52.004,31.523,80.744,25.075,28.739-6.448,53.28-30.047,59.489-58.84"/><path class="cls-3" d="m1802.43,1076.974c-46.282-15.868-82.577-57.893-91.541-105.991-3.565-19.129-3.132-39.072-9.265-57.538-10.32-31.077-37.538-53.299-65.207-70.812-27.669-17.513-57.685-32.616-79.576-56.969-8.363-9.304-15.73-21.625-12.513-33.714,2.936-11.035,14.12-18.214,25.361-20.223,11.241-2.009,22.749.068,34.075,1.525,2.808.361,5.881.629,8.263-.902,6.301-4.049.99-13.843-4.975-18.372-20.872-15.848-49.081-23.333-74.065-15.419-24.984,7.914-44.685,33.093-42.248,59.186,1.382,14.795,9.247,28.305,18.952,39.557,37.186,43.111,99.6,57.178,137.979,99.23,7.575,8.3,14.201,20.991,7.625,30.102-3.252,4.506-8.833,6.568-14.064,8.443-24.414,8.747-51.356,21.734-58.334,46.712-5.303,18.982,3.052,39.274,14.712,55.163,10.609,14.456,24.081,26.803,39.405,36.115"/><path class="cls-3" d="m313.474,1079.816c27.369-21.581,53.609-61.118,69.094-104.109,15.486-42.991,19.88-88.5,11.571-119.834-8.569-32.316-28.984-48.152-47.31-65.957-10.156-9.867-20.346-22.293-19.977-44.82.393-23.989,13.404-53.69,28.876-73.404s32.889-30.967,49.343-38.491c84.329-38.562,155.09,16.447,166.212,129.212,5.444,55.201-4.818,129.223-38.66,187.927-13.131,22.779-28.746,41.473-44.256,59.193-28.354,32.393-57.232,62.765-86.432,90.905"/><path class="cls-3" d="m1480.283-54.552c43.586,38.281,69.933,93.172,69.835,145.492-.035,18.826-6.601,40.617-26.105,43.652-6.276.977-12.987-.255-19.453-1.896-18.842-4.782-36.989-13.049-55.914-17.265-18.925-4.217-39.929-3.724-53.153,7.466-17.004,14.389-15.408,40.998-7.787,63.451,7.855,23.14,20.725,45.019,30.37,67.751,9.645,22.732,16.076,47.475,10.171,69.545-.921,3.443-2.328,7.019-5.546,8.753-1.958,1.055-4.37,1.297-6.735,1.382-13.517.483-27.33-3.514-41.018-4.699-13.689-1.186-28.682,1.266-35.554,11.454-7.943,11.776-2.026,28.41,3.785,42.724,14.275,35.159,27.352,71.789,25.416,107.556-.555,10.246-2.604,20.81-9.695,27.954-10.794,10.876-29.925,10.773-46.829,7.609-48.352-9.05-93.524-37.608-127.101-73.902-33.576-36.294-56.324-79.893-71.869-124.255-17.663-50.407-26.469-104.211-12.58-152.035,7.248-24.955,25.852-50.522,54.573-48.515,27.242,1.904,48.259,27.252,74.131,38.226,4.024,1.707,8.405,3.088,12.478,2.458,7.019-1.086,10.938-7.985,10.855-14.769s-3.224-13.517-6.129-20.068c-18.041-40.681-29.1-83.352-32.578-125.699-1.017-12.387-1.356-25.008,2.515-36.335,3.871-11.327,12.611-21.298,25.077-24.102,19.805-4.454,47.264,8.446,59.769-5.86,7.729-8.843,3.997-22.871-.049-34.824-6.868-20.29-13.735-40.579-20.603-60.869"/><path class="cls-3" d="m1414.393-33.061c25.36,24.231,40.892,60.483,42.669,99.594.226,4.975.193,10.224-1.865,14.979-3.52,8.132-12.126,12.598-19.886,13.21-7.76.611-15.085-1.764-22.54-3.15-17.716-3.294-38.456-.118-52.843,14.653-11.702,12.014-17.246,29.813-17.996,46.467-.749,16.654,2.716,32.562,6.158,48.214,4.43,20.143,8.859,40.286,13.289,60.43,1.339,6.087,2.686,12.361,1.803,18.854s-4.541,13.342-10.17,15.845c-5.805,2.581-11.725.006-17.373-1.522-10.263-2.777-22.427-1.596-31.617,6.242-10.425,8.891-14.622,23.893-16.8,37.682-2.178,13.789-3.277,28.235-10.119,40.617-1.465,2.651-3.294,5.273-5.788,6.636-3.081,1.683-6.525,1.109-9.554.129-15.403-4.984-26.302-18.887-34.881-33.504-12.053-20.536-20.969-43.575-26.328-68.032-3.289-15.013-4.038-34.181,7.625-45.126,4.976-4.67,11.315-6.792,17.446-8.121,8.654-1.876,17.418-2.475,25.953-5.379,8.534-2.904,17.157-8.657,21.444-17.573,3.469-7.214,3.624-15.399,3.199-23.07-2.063-37.194-15.57-71.721-13.661-109.476.646-12.775,3.832-27.094,13.408-35.483,10.364-9.079,24.608-8.124,35.838-15.65,15.629-10.474,20.229-33.396,19.367-52.39s-5.205-38.037-.011-57.017"/><path class="cls-3" d="m77.632,1089.574c-12.218-16.456-24.699-33.364-33.68-53.956-8.981-20.592-13.909-45.958-8.844-63.632,9.179-32.034,44.707-24.607,53.524-57.005,1.41-5.182,2.004-11.384.788-17.841-2.566-13.618-11.839-23.662-20.045-31.722-15.23-14.961-31.742-32.405-39.216-57.227-11.201-37.197,3.845-69.158,21.073-86.95,45.544-47.039,107.995-53.216,161.692-81.449,10.076-5.298,20.499-12.378,23.94-28.083,5.029-22.952-7.784-55.747-23.99-73.163-16.206-17.416-34.581-23.081-51.972-27.164-118.963-27.935-232.892-7.991-331.641,50.281-25.422,15.002-50.183,32.813-69.011,61.134-18.827,28.32-31.391,68.313-29.568,115.378.76,19.616,4.159,40.681,11.934,59.57,16.296,39.59,46.25,59.146,72.277,81.708,9.724,8.429,21.302,23.275,19.895,37.617-.658,6.702-4.161,10.681-7.626,13.921-14.693,13.734-32,22.119-45.109,38.863-13.109,16.744-21.573,45.24-14.115,76.374,9.762,40.755,42.79,71.695,47.79,112.422"/><path class="cls-3" d="m43.013,1094.008c-12.11-17.135-24.393-34.57-33.857-55.093-9.464-20.524-15.898-44.921-14.062-65.509,3.012-33.788,25.939-46.273,37.176-72.411,2.548-5.927,4.535-13.064,3.626-21.389-2.221-20.35-18.409-33.365-29.344-49.107-22.369-32.204-23.308-84.299-9.188-112.129,14.12-27.83,38.653-37.632,62.155-46.465,33.776-12.694,67.552-25.389,101.328-38.083,5.27-1.981,10.678-4.069,14.473-9.358,3.795-5.289,5.635-14.62,2.897-23.869-2.031-6.861-6.115-12.387-10.16-17.022-16.373-18.763-35.025-29.136-53.047-35.398-35.976-12.502-70.562-10.032-104.209-5.706-79.191,10.183-159.718,33.086-208.466,115.261-13.962,23.536-25.254,53.387-23.713,90.404.51,12.257,2.58,25.509,7.724,37.085,7.455,16.775,19.65,26.74,30.494,38.035,13.159,13.706,25.29,30.815,35.504,50.069,10.016,18.883,18.577,42.025,17.286,62.145-2.215,34.524-30.053,39.411-42.868,63.736-7.413,14.072-9.492,35.42-5.546,56.96,4.405,24.052,15.949,50.568,11.498,70.629"/><path class="cls-3" d="m156.491,844.635v1.532"/><path class="cls-1" d="m387.31-286.735c32.478,31.635,52.751,75.498,55.8,120.734,1.973,29.267-4.184,61.074-25.471,81.256-32.447,30.762-83.723,23.001-128.363,20.477-58.031-3.28-118.566,6.759-166.703,39.335C105.491-13.372,89.584,1.852,83.714,21.625c-11.184,37.674,17.005,75.051,45.542,102.07,28.537,27.019,61.782,56.031,64.209,95.255,3.316,53.602-55.869,92.62-109.57,93.256-53.701.637-104.011-23.883-155.816-38.039-51.805-14.156-114.155-15.323-151.694,23.083-41.869,42.835-32.243,116.303,1.553,165.757,8.258,12.084,18.051,24.163,19.652,38.711,3.111,28.256-25.375,49.6-52.118,59.239-26.743,9.638-57.467,15.591-74.716,38.187-21.38,28.008-12.098,67.969-.484,101.236,11.614,33.267,24.409,71.052,7.981,102.224-14.34,27.209-45.871,39.342-72.245,55.165-44.966,26.977-79.822,70.389-96.446,120.122"/><path class="cls-1" d="m875.987-136.051c65.914,50.963,126.856,108.354,181.68,171.093,6.554,7.5,13.405,16.129,12.945,26.078-.737,15.955-19.155,24.617-34.994,26.675-15.839,2.058-33.691,1.808-45.146,12.939-15.312,14.878-9.568,41.29,2.945,58.589,12.513,17.299,30.485,30.662,40.058,49.746,2.685,5.353,4.578,12,1.478,17.123-2.776,4.588-8.518,6.255-13.746,7.452-44.28,10.135-90.017,13.548-133.719,25.937-43.703,12.389-86.86,35.612-110.018,74.69-38.193,64.448-9.591,149.329,37.464,207.622,9.432,11.685,19.83,23.304,24.022,37.724,4.192,14.42-.155,32.69-13.818,38.921-6.187,2.822-13.25,2.796-20.047,2.571-96.168-3.183-188.997-35.577-284.618-46.306-95.621-10.729-203.551,5.722-265.16,79.632-10.388,12.462-19.349,26.709-22.256,42.67-6.541,35.911,18.433,69.681,44.876,94.843,26.443,25.162,57.288,49.137,68.175,83.977,1.92,6.143,3.094,13.061.234,18.827-4.073,8.213-14.378,10.777-23.447,12.114-40.193,5.928-81.892,5.841-119.817,20.413-37.925,14.571-72.32,49.505-69.474,90.033,1.38,19.654,11.162,37.594,16.791,56.476,7.384,24.767,7.52,51.648.387,76.488"/><path class="cls-3" d="m930.926-1.081c7.128,7.412,14.458,15.721,15.603,25.941,2.097,18.714-16.36,32.219-27.907,47.095-13.14,16.927-18.23,39.838-13.494,60.737,4.036,17.81,14.535,37.134,5.334,52.908-5.258,9.015-15.529,13.621-25.148,17.672-25.476,10.73-50.953,21.459-76.429,32.189-8.263,3.48-17.851,6.94-25.846,2.884-4.13-2.096-7.12-5.941-9.298-10.029-13.656-25.632,1.39-56.488,15.602-81.816,21.63-38.552,42.318-79.245,45.758-123.316,2.543-32.571-4.518-65.078-5.792-97.724,0-.011,0-.023-.001-.034-.164-4.643,2.087-8.619,6.004-10.665,33.156,26.572,65.986,53.349,95.615,84.158Z"/><path class="cls-3" d="m775.444-117.566c7.941,46.921,11.529,95.928-3.674,141.196-10.667,31.764-30.044,60.085-46.574,89.485-43.25,76.926-67.645,167.9-43.627,252.106,9.821,34.431,27.365,66.616,35.878,101.361,2.084,8.504,3.613,17.399,1.628,25.924-3.372,14.477-16.792,25.573-31.743,29.722-14.951,4.149-31.121,2.232-45.989-2.178-53.066-15.74-91.088-61.018-114.275-109.118-23.188-48.1-34.734-100.504-54.807-149.857-20.074-49.353-51.161-97.819-100.346-122.468-16.066-8.051-35.925-15.835-39.686-32.748-3.609-16.231,10.468-31.248,25.385-39.822,30.537-17.552,67.644-21.084,103.313-21.088,35.669-.005,71.681,3.06,106.781-2.984,35.1-6.044,70.317-23.03,87.148-52.975,14.707-26.166,13.228-57.634,9.889-87.141-3.31-29.251-8.074-58.353-14.271-87.176"/><path class="cls-3" d="m740.79-75.266c17.724,42.356,1.172,91.407-22.74,130.604-23.911,39.198-55.374,74.433-71.087,117.576-17.846,48.998-13.51,102.913-8.915,154.857.741,8.383,1.371,17.339-2.692,24.708-6.413,11.631-22.823,14.658-35.108,9.608-12.285-5.049-21.05-16.079-27.983-27.408-27.18-44.413-34.371-98.767-61.28-143.345-16.457-27.264-40.106-50.142-67.9-65.687-6.266-3.504-13.432-7.512-14.945-14.53-2.614-12.128,13.064-19.589,25.432-20.56,53.548-4.202,109.352,23.176,159.578,4.138,34.884-13.223,58.736-46.977,69.49-82.7,10.754-35.723,10.362-73.714,9.878-111.017"/><path class="cls-3" d="m851.793,1119.838c18.316-.752,31.005-22.157,30.153-41.233s-11.18-35.903-21.13-51.76-20.175-32.792-20.78-51.883c-.972-30.7,24.311-57.429,52.457-67.048,28.146-9.619,58.468-6.013,87.585-1.89,29.117,4.124,59.15,8.611,87.728.597,3.452-.968,7.425-2.73,8.147-6.379.457-2.309-.603-4.596-1.702-6.625-23.604-43.568-77.62-63.406-96.405-109.523-12.243-30.057-6.225-66.345,10.827-94.317,17.052-27.972,43.909-48.323,72.697-62.241,18.115-8.758,38.507-16.331,49.324-33.875,12.432-20.163,7.603-47.201-3.913-67.496-16.396-28.896-43.984-48.568-71.277-66.349-25.28-16.469-51.968-32.456-81.711-36.379-29.743-3.923-63.453,6.998-79.28,33.955-14.403,24.532-11.034,55.856-2.902,82.943,8.132,27.087,20.574,53.093,23.129,81.453,1.26,13.982-.685,29.822-10.962,39.125-4.442,4.021-10.031,6.399-15.683,7.985-23.118,6.485-47.308.642-71.081-.665-23.773-1.306-51.05,4.002-64.219,24.977-9.262,14.752-9.102,33.995-4.355,50.675,4.747,16.68,13.551,31.652,20.897,47.229,6.534,13.855,12.032,28.686,12.305,44.232s-5.468,32.007-17.647,41.212c-8.631,6.523-19.394,8.791-29.644,11.657-50.498,14.121-95.324,46.237-132.81,84.626-37.486,38.389-68.36,83.102-99.028,127.563"/><path class="cls-3" d="m554.884-58.858c-18.221,27.619-46.636,48.343-78.501,57.255-38.646,10.808-79.668,4.456-119.782,3.344-40.114-1.112-84.041,4.83-111.853,33.758-14.647,15.235-23.31,38.894-13.885,57.811,4.374,8.779,12.005,15.41,19.358,21.901,65.901,58.17,127.897,131.425,134.223,219.098,3.175,43.998-11.893,93.278-50.522,114.578-44.137,24.337-98.571,3.847-144.55-16.802-55.526-24.936-111.051-49.873-166.577-74.809-32.415-14.557-69.459-29.274-102.296-15.697-36.534,15.106-51.877,60.546-47.114,99.792,4.763,39.246,24.579,74.752,39.826,111.228,4.937,11.811,9.5,24.601,7.033,37.163-5.152,26.239-36.367,37.086-62.806,41.091-26.439,4.005-57.397,8.736-70.043,32.297-13.986,26.058,3.58,56.85,16.166,83.612,18.153,38.601,25.237,87.101.834,122.087-14.556,20.868-37.829,33.508-59.164,47.371-61.717,40.106-116.602,107.223-105.709,180.016"/></g></svg>