<?xml version="1.0" encoding="UTF-8"?><svg id="Layer_1" xmlns="http://www.w3.org/2000/svg" width="1920" height="1080" xmlns:xlink="http://www.w3.org/1999/xlink" viewBox="0 0 1920 1080"><defs><style>.cls-1,.cls-2{fill:none;}.cls-2{stroke-width:3px;}.cls-2,.cls-3{stroke:#eaeaea;stroke-miterlimit:10;}.cls-4{clip-path:url(#clippath);}.cls-3{fill:#fff;}</style><clipPath id="clippath"><rect class="cls-1" x="-.5" y=".5" width="1920" height="1080"/></clipPath></defs><g class="cls-4"><g><rect class="cls-3" x="-1.5" y=".5" width="1920" height="1080"/><path class="cls-2" d="m-2.487,45.625c36.502,32.899,87.531,46.575,122.769,80.826,10.321,10.031,21.845,22.733,36.06,20.48.377-57.779-23.503-115.334-64.675-155.875"/><path class="cls-2" d="m3.377,126.741c47.128,10.754,85.352,43.863,126.93,68.519,15.377,9.119,34.762,17.199,50.417,8.566,17.25-9.512,19.365-33.128,18.432-52.804-2.664-56.227-12.826-112.094-30.133-165.658"/><path class="cls-2" d="m1.521,167.582c51.112,2.449,92.931,39.018,136.423,65.98,17.958,11.133,39.116,21.153,59.535,15.72,10.52-2.799,19.658-9.528,27.018-17.549,26.513-28.893,30.263-71.368,32.661-110.509,1.634-26.683,3.268-53.366,4.902-80.048,1.084-17.694,2.009-36.266-5.571-52.291"/><path class="cls-2" d="m-2.821,202.492c30.459,1.708,58.652,16.446,84.035,33.369,25.383,16.923,49.245,36.447,76.692,49.762,27.448,13.316,59.922,19.937,88.548,9.39,25.825-9.515,45.484-32.277,55.031-58.089,4.887-13.212,7.365-27.17,9.821-41.04,4.256-24.043,8.513-48.086,12.769-72.129,8.307-46.922,16.605-95.216,6.905-141.87"/><path class="cls-2" d="m-8.173,242.416c74.689,26.492,141.428,73.998,218.344,93.083,14.437,3.582,29.36,6.139,44.156,4.608,14.179-1.467,27.802-6.672,40.123-13.84,41.677-24.248,67.158-69.34,81.91-115.246,14.752-45.906,20.686-94.215,34.265-140.481,10.849-36.965,26.736-73.805,24.399-112.259"/><path class="cls-2" d="m541.879-8.476c-28.717,42.095-58.107,85.767-67.608,135.83-6.054,31.896-3.68,64.889-9.085,96.901-7.199,42.63-27.821,81.684-40.561,122.999-5.421,17.58-9.357,36.845-2.958,54.093,8.032,21.649,30.373,34.637,52.463,41.363,60.53,18.429,129.452,1.071,177.415-40.198s75.09-104.263,77.301-167.498c.898-25.684-2.036-51.465.258-77.062,5.597-62.456,41.872-119.939,42.201-182.644"/><path class="cls-2" d="m593.306,1.523c-.79,56.383-50.763,100.124-63.959,154.947-6.035,25.071-4.097,51.534-10.083,76.617-9.765,40.918-40.261,77.314-37.796,119.308.467,7.962,2.28,16.131,7.114,22.475,13.471,17.678,41.62,12.526,60.843,1.371,41.818-24.267,69.471-66.479,95.574-107.176,7.847-12.234,15.791-24.675,19.942-38.604,5.612-18.83,3.906-38.989,6.497-58.465,4.477-33.655,21.527-64.073,35.815-94.872s26.267-64.85,19.727-98.166"/><path class="cls-2" d="m630.559-1.299c-13.703,78.424-53.714,149.936-71.969,227.427-2.568,10.901-2.572,25.877,8.082,29.331,3.827,1.241,8.024.414,11.808-.952,19.46-7.026,31.363-27.046,36.704-47.034,5.341-19.988,5.719-41.018,10.705-61.098,5.703-22.97,17.286-44.114,23.433-66.969,8.366-31.105,6.333-63.936,4.236-96.078"/><path class="cls-2" d="m-34.777,360.831c82.299,1.795,165.556,3.722,245.015,25.231,23.542,6.373,46.774,14.468,70.987,17.397,15.612,1.888,31.534,1.612,46.845,5.199,61.517,14.412,93.553,83.924,149.79,112.725,48.983,25.086,109.281,15.194,159.238-7.891,49.957-23.084,93.395-58.069,141.325-85.112,47.93-27.044,104.09-46.34,157.664-33.754,55.184,12.965,97.199,56.838,147.687,82.611,46.767,23.873,100.068,31.8,148.329,52.486s94.571,60.872,97.339,113.306c3.479,65.924-59.67,113.314-92.255,170.727-29.442,51.876-34.448,115.214-65.99,165.841-20.228,32.468-51.954,62.039-51.595,100.291"/><path class="cls-2" d="m390.256,1079.216c-67.828-34.293-136.392-71.612-186.104-129.105-38.107-44.071-63.136-97.784-85.171-151.718-6.18-15.128-12.245-30.698-12.899-47.027-1.963-49.001,47.277-87.953,96.131-92.224,48.854-4.271,96.062,16.755,139.916,38.704,43.854,21.949,88.845,45.843,137.84,47.945,53.698,2.304,105.392-22.271,148.219-54.746,42.827-32.474,78.879-72.897,118.754-108.935,33.66-30.42,72.309-58.706,117.247-64.947,57.298-7.959,112.725,21.126,161.947,51.515,36.114,22.297,72.679,47.073,94.372,83.554,18.768,31.561,24.655,69.248,24.945,105.966.656,83.074-30.927,172.158-101.928,215.292-43.201,26.246-95.107,32.506-144.26,44.306-49.153,11.8-100.588,32.648-126.313,76.162"/><path class="cls-2" d="m-1.68,810.213c8.133-37.731,19.934-74.671,35.182-110.129,20.317-47.243,50.239-94.935,98.138-113.651,27.891-10.898,59.153-10.622,88.461-4.479,29.308,6.143,57.105,17.861,84.69,29.512,31.227,13.189,62.454,26.378,93.681,39.568,10.212,4.313,20.682,8.688,31.752,9.284,11.07.596,23.049-3.328,29.189-12.558,9.741-14.643.942-34.624-10.804-47.713-23.699-26.408-58.028-41.128-82.857-66.477-18.813-19.206-31.645-43.996-52.299-61.205-20.647-17.204-47.498-25.355-74.162-28.721-26.664-3.366-53.662-2.358-80.514-3.472-60.408-2.506-120.349-15.883-176.09-39.3"/><path class="cls-2" d="m3.329,651.267c-2.915,1.096-5.831,2.192-8.746,3.288,8.206-50.316,42.405-93.787,84.759-122.164,10.798-7.235,22.423-13.73,35.192-16.154,36.399-6.908,70.715,20.109,107.666,22.801,13.944,1.016,30.558-3.466,35.255-16.634,3.444-9.655-1.214-20.792-8.946-27.524-7.731-6.732-17.938-9.843-27.979-11.906-41.441-8.514-84.27-2.108-126.568-1.289s-87.791-5.341-119.172-33.713"/><path class="cls-2" d="m-7.698,864.35c7.081,16.561,24.933,25.803,42.301,30.572,17.369,4.769,35.764,6.504,51.958,14.389,19.8,9.64,34.856,28.517,39.852,49.965,2.997,12.866,2.533,26.373,5.84,39.162,5.403,20.89,20.228,37.845,34.587,53.95,15.855,17.783,31.71,35.566,47.565,53.349"/><path class="cls-2" d="m-5.216,932.555c2.309,17.392,9.985,34.033,21.716,47.079,13.279,14.768,31.746,25.288,40.887,42.92,6.207,11.972,7.328,25.816,10.003,39.033,3.925,19.392,11.438,38.052,22.043,54.755"/><path class="cls-2" d="m268.043,1070.729c-38.611-28.943-78.088-58.807-103.924-99.563-19.514-30.782-30.576-66.835-53.686-95.018-21.712-26.478-54.03-46.24-64.145-78.954-11.374-36.786,9.862-75.373,33.451-105.806,28.219-36.408,65.353-71.301,111.284-74.788,25.108-1.907,49.853,5.917,73.589,14.319,40.289,14.261,79.885,30.481,118.601,48.583,34.366,16.068,70.694,34.1,108.302,29.118,37.608-4.982,72.576-45.434,56.4-79.749-2.342-4.968-5.665-9.745-5.934-15.231-.334-6.804,4.137-12.891,9.033-17.627,36.369-35.189,96.255-25.112,142.995-44.511,37.142-15.415,63.86-48.642,98.619-68.865,32.573-18.951,70.674-25.645,108.011-30.754,32.378-4.43,67.98-7.223,95.176,10.897,33.886,22.578,42.913,69.788,74.219,95.825,31.879,26.513,79.201,25.139,114.133,47.477,39.819,25.463,55.235,82.796,33.557,124.796-12.961,25.111-37.12,44.948-42.363,72.715-3.113,16.484,1.028,33.441.416,50.205-2.01,55.056-51.766,93.884-88.692,134.77-33.392,36.974-58.773,81.147-73.9,128.615"/><path class="cls-2" d="m466.478,1080.578c-13.253-16.415-26.389-33.001-41.384-47.842-54.437-53.877-133.457-85.313-168.639-153.345-10.543-20.387-16.222-45.435-6.173-66.071,14.165-29.09,52.871-36.786,84.779-31.422,44.197,7.43,84.956,33.484,110.255,70.479,12.324,18.021,21.147,38.489,35.498,54.942,14.264,16.352,33.35,27.976,47.393,44.517,29.751,35.043,31.915,85.059,32.632,131.022"/><path class="cls-2" d="m592.843,1084.973c12.784-38.81,8.62-82.882-11.206-118.611-18.875-34.015-50.587-59.8-67.865-94.654-7.892-15.921-12.337-35.544-3.704-51.076,7.424-13.359,22.637-20.31,37.362-24.405,29.435-8.186,60.629-8.47,90.04-16.74,50.031-14.067,91.165-50.265,123.314-91.098,15.264-19.386,29.302-40.41,49.366-54.772,24.228-17.343,55.423-23.221,85.076-20.313,29.653,2.909,57.977,14.024,84.25,28.078,19.253,10.299,38.001,22.557,51.448,39.76,18.65,23.859,25.33,54.846,28.817,84.928,3.95,34.075,4.365,69.379-6.821,101.807s-35.609,61.732-68.431,71.702c-25.1,7.625-52.149,3.477-77.797-2.028-25.648-5.506-51.605-12.358-77.726-9.942s-53.084,16.418-62.445,40.924c-4.869,12.748-4.549,26.924-8.57,39.965-5.761,18.682-19.806,33.412-30.815,49.568-11.009,16.156-19.317,36.889-11.852,54.959"/><path class="cls-2" d="m500.412,1082.849c-7.361-31.805-32.692-56.147-58.812-75.729-10.898-8.17-22.395-16.118-30.052-27.383-7.657-11.265-10.632-26.944-3.315-38.433,5.648-8.868,16.505-13.559,27.019-13.559,10.514,0,20.668,4.154,29.517,9.832,13.184,8.459,24.071,20.46,31.21,34.403,6.483,12.662,9.834,26.653,13.13,40.491,6.88,28.882,13.759,57.764,20.639,86.646"/><path class="cls-2" d="m640.026,1075.712c14.011-32.264,12.232-70.96-4.68-101.803-12.756-23.264-33.222-41.68-45.312-65.297-12.089-23.617-12.499-57.345,9.636-71.972,14.814-9.789,34.371-7.599,51.594-3.279,17.223,4.32,34.828,10.447,52.306,7.315,22.841-4.093,40.026-23.098,52.142-42.888,12.116-19.79,21.289-41.758,37.274-58.578,26.639-28.032,71.428-36.924,106.755-21.195,35.327,15.729,58.689,54.963,55.683,93.516-.799,10.246-3.375,20.561-9.067,29.118-10.042,15.097-28.252,22.654-46.021,26.263-24.53,4.983-49.813,4.028-74.815,5.215-25.003,1.187-50.735,4.82-72.127,17.819s-37.495,37.296-34.364,62.13c1.331,10.56,5.963,20.656,5.944,31.299-.029,17.016-11.63,31.424-20.414,45.998-14.398,23.886-22.196,51.706-22.311,79.596"/><path class="cls-2" d="m1201.66,1096.077c90.934-61.797,170.232-140.653,232.536-231.239,39.242-57.055,72.887-125.01,60.217-193.088-9.405-50.539-43.334-93.339-82.128-127.068-38.795-33.729-83.174-60.466-122.81-93.202-24.404-20.155-49.01-51.191-36.67-80.337,3.967-9.37,11.382-16.898,19.53-22.994,39.621-29.642,99.464-31.217,127.823-71.767,27.699-39.607,14.183-103.082,52.876-132.044,10.462-7.831,23.35-11.673,36.14-14.359,60.652-12.741,127.398-1.206,176.343,36.811,48.945,38.017,77.05,103.554,64.471,164.239-5.314,25.635-17.195,49.36-25.8,74.085-12.167,34.96-16.79,76.699,5.119,106.535,17.141,23.344,46.654,33.945,75.071,39.531s57.98,7.579,84.487,19.246c38.796,17.076,67.433,55.368,72.849,97.408"/><path class="cls-2" d="m1170.01,1077.358c70.146-61.569,140.306-126.342,184.444-208.58,44.138-82.237,58.354-186.181,14.052-268.33-56.768-105.266-188.482-145.874-265.05-237.749-18.014-21.615-33.226-51.713-20.666-76.891,5.312-10.649,14.896-18.537,24.941-24.919,62.091-39.45,142.963-30.195,212.535-54.096,13.469-4.627,26.729-10.649,37.378-20.106,10.467-9.296,17.909-21.441,25.174-33.407,14.728-24.259,29.65-48.91,50.437-68.23,54.242-50.413,135.736-54.632,209.781-53.603,39.698.551,80.401,2.009,117.127,17.09,44.968,18.466,80.932,57.644,95.492,104.025,14.559,46.381,7.438,99.083-18.91,139.936-14.972,23.215-35.717,42.703-47.716,67.585-12,24.882-12.241,59.088,9.698,75.874,34.162,26.139,83.937-10.578,125.616.057"/><path class="cls-2" d="m1296.144,1073.753l-10.989,5.361c86.681-72.744,175.387-147.919,229.443-247.334,19.114-35.152,33.657-73.325,37.668-113.136,4.011-39.811-3.088-81.44-24.432-115.284-42.163-66.856-129.28-91.376-179.985-152.009-10.029-11.993-18.742-25.952-20.245-41.513-1.503-15.562,5.973-32.804,20.477-38.64,14.18-5.706,30.07.478,45.349.92,31.766.918,59.74-24.34,71.41-53.899,11.822-29.945,11.7-66.496,34.957-88.757,22.218-21.266,58.649-20.52,86.393-7.249,26.077,12.473,47.632,35.282,55.952,62.965,13.757,45.773-9.181,93.622-30.52,136.39-21.339,42.768-42.032,92.462-24.155,136.789,19.551,48.477,75.505,68.49,122.282,91.817,32.421,16.168,63.216,36.606,87.122,63.827,23.906,27.222,40.577,61.726,42.194,97.918,2.276,50.928-24.384,97.922-41.98,145.768-17.596,47.846-24.117,107.664,11.173,144.453"/><path class="cls-2" d="m1433.887,1081.186c12.558-11.937,25.117-23.874,37.675-35.811,55.501-52.754,113.882-110.596,128.332-185.793,4.518-23.51,7.757-52.58,29.884-61.721,11.326-4.679,24.794-1.956,34.944,4.911,10.15,6.867,17.34,17.379,22.549,28.472,5.736,12.215,9.361,25.49,9.944,38.972,1.324,30.595-12.718,59.417-23.998,87.888-11.28,28.47-19.977,60.864-8.233,89.146,6.115,14.726,17.534,27.561,19.49,43.385"/><path class="cls-2" d="m1503.261,1075.861c8.872-17.402,17.745-34.805,26.617-52.207,8.469-16.612,17.072-33.422,29.427-47.387,12.356-13.965,29.082-25.005,47.656-26.644,5.072-.447,10.557-.071,14.623,2.993,4.629,3.488,6.362,9.675,6.607,15.466,1.009,23.831-17.718,44.635-18.949,68.456-1.019,19.734,10.027,37.836,20.666,54.487"/><path class="cls-2" d="m824.401-9.41c3.699,42.236-14.261,82.899-28.814,122.721-14.553,39.822-25.863,84.676-9.459,123.772,8.465,20.174,23.738,36.912,41.12,50.198,36.51,27.906,89.512,40.916,128.426,16.474,46.057-28.928,53.562-95.574,95.51-130.192,26.101-21.54,61.797-27.36,95.639-27.405,33.842-.045,67.772,4.852,101.427,1.3,33.655-3.552,68.498-17.357,86.742-45.859,18.098-28.273,18.597-68.368,45.585-88.332,8.298-6.139,18.837-10.064,24.169-18.902"/><path class="cls-2" d="m1806.578-17.276c18.425,69.342,97.041,114.469,102.978,185.971,1.715,20.658-3.089,41.51-.733,62.105,3.7,32.348,26.429,61.799,56.783,73.576"/><path class="cls-2" d="m932.054-43.314c16.234,29.47,2.362,66.807-17.975,93.611-20.336,26.804-47.173,49.265-61.2,79.847-6.142,13.391-9.595,28.01-10.094,42.734-.298,8.789.511,17.846,4.366,25.75,7.023,14.4,23.533,22.633,39.554,22.744s31.419-6.824,44.351-16.281c17.236-12.605,30.989-29.925,39.361-49.569,10.253-24.06,13.339-52.628,32.311-70.63,19.345-18.356,49.942-19.581,75.346-11.467,14.444,4.613,27.938,11.783,42.179,16.989,20.181,7.377,41.821,10.736,63.288,9.824,18.871-.802,41.022-7.919,45.888-26.17,3.038-11.394-1.911-23.286-2.186-35.075-.424-18.175,11.58-35.99,28.585-42.421"/><path class="cls-2" d="m980.037-20.069c-2.38,48.479-45.677,83.319-69.931,125.363-6.247,10.829-10.09,27.1.458,33.813,7.528,4.791,18.024.652,23.587-6.324,5.564-6.976,7.659-15.992,10.512-24.447,7.77-23.03,22.3-43.734,41.315-58.871,8.343-6.641,17.721-12.309,28.117-14.685,23.525-5.375,47.007,6.627,70.14,13.496,23.133,6.87,53.576,5.753,64.818-15.6,8.148-15.476,2.31-35.158,9.075-51.287"/><path class="cls-2" d="m1340.096,1086.838c69.548-45.594,125.803-108.941,174.354-176.458,23.748-33.025,46.011-67.51,61.018-105.318,7.971-20.083,13.843-40.999,17.487-62.296,3.265-19.079,4.731-38.722,1.187-57.752-3.306-17.752-10.847-34.391-18.324-50.828-18.618-40.93-37.976-82.924-70.458-114.017-22.884-21.905-51.374-37.445-73.429-60.184-8.964-9.242-17.249-21.456-14.601-34.056,4.07-19.366,28.538-24.328,46.427-32.791,12.124-5.736,22.683-14.738,30.263-25.803,7.293-10.644,11.923-23.186,20.837-32.515s24.686-14.308,34.605-6.055c10.936,9.1,7.41,26.475,2.442,39.806-7.642,20.507-16.511,40.953-18.648,62.733-2.88,29.353,6.696,58.359,16.532,86.165,17.356,49.065,36.953,99.297,73.834,136.017,24.847,24.74,56.16,41.888,83.072,64.364,26.913,22.476,50.466,53.365,50.418,88.428-.037,27.391-14.522,53.994-10.491,81.087,1.925,12.937,8.039,25.311,7.49,38.378-.888,21.159-18.502,37.407-26.839,56.874-9.175,21.425-6.692,46.117-.444,68.571,6.248,22.454,16.045,43.852,21.384,66.539"/><rect class="cls-2" x="-3" width="1923" height="1080"/></g></g></svg>