<?xml version="1.0" encoding="UTF-8"?><svg id="Layer_1" xmlns="http://www.w3.org/2000/svg" width="87.542" height="80.906" viewBox="0 0 87.542 80.906"><path d="m62.621,7.512l5.713,17.432h-1.66c-1.595-3.092-3.264-5.745-5.005-7.959-1.742-2.213-3.564-4.012-5.469-5.396-1.904-1.383-3.931-2.4-6.079-3.052-2.148-.651-4.574-.977-7.275-.977-3.841,0-7.422.732-10.742,2.197s-6.201,3.532-8.643,6.201c-2.441,2.669-4.338,5.827-5.688,9.473-1.351,3.646-2.026,7.568-2.026,11.768,0,6.348,1.253,12.134,3.76,17.358,2.506,5.225,5.949,9.326,10.327,12.305,4.378,2.979,9.236,4.468,14.575,4.468,3.678,0,7.121-.716,10.327-2.148,3.206-1.432,6.062-3.499,8.569-6.201,2.506-2.702,4.688-6.104,6.543-10.205h2.002c-2.734,7.227-6.853,12.704-12.354,16.431-5.501,3.728-12.224,5.591-20.166,5.591-9.277,0-16.96-2.506-23.047-7.52-2.604-2.181-4.793-4.655-6.567-7.422-1.774-2.767-3.133-5.802-4.077-9.106-.944-3.304-1.416-6.697-1.416-10.181,0-6.478,1.636-12.402,4.907-17.773s7.78-9.595,13.525-12.671c5.745-3.076,12.101-4.614,19.067-4.614,2.93,0,6.787.423,11.572,1.27,3.32.619,5.729.928,7.227.928.651,0,1.351-.065,2.1-.195Zm-25.146,65.625c-4.134-1.139-7.878-2.767-11.23-4.883-3.353-2.116-6.152-4.639-8.398-7.568s-3.947-6.258-5.103-9.985c-1.156-3.727-1.733-7.788-1.733-12.183,0-3.255.293-6.185.879-8.789.586-2.604,1.538-5.086,2.856-7.446,1.318-2.36,2.986-4.549,5.005-6.567s4.476-4.004,7.373-5.957c-3.418,1.53-6.429,3.345-9.033,5.444-2.604,2.1-4.802,4.46-6.592,7.08-1.791,2.621-3.142,5.485-4.053,8.594-.912,3.109-1.367,6.356-1.367,9.741,0,3.646.521,7.129,1.562,10.449,1.042,3.32,2.522,6.364,4.443,9.131,1.92,2.767,4.248,5.111,6.982,7.031,2.734,1.888,5.558,3.296,8.472,4.224,2.913.928,6.226,1.489,9.937,1.685Z"/><path d="m27.04,52.43v-.586c1.361-.227,2.351-.75,2.969-1.569.479-.605.719-1.809.719-3.612v-14.277c0-1.147-.063-1.979-.189-2.496-.126-.517-.359-.958-.7-1.324-.631-.706-1.563-1.16-2.799-1.361v-.586h11.781v.586c-1.361.227-2.357.75-2.988,1.569-.252.328-.435.766-.548,1.314s-.17,1.314-.17,2.297v6.316h13.293v-6.316c0-1.147-.063-1.979-.189-2.496-.126-.517-.359-.958-.699-1.324-.631-.706-1.563-1.16-2.799-1.361v-.586h11.781v.586c-1.361.227-2.357.75-2.988,1.569-.252.328-.435.766-.548,1.314s-.17,1.314-.17,2.297v14.277c0,1.072.066,1.882.199,2.43s.369,1.012.709,1.39c.63.706,1.563,1.16,2.799,1.361v.586h-11.781v-.586c1.361-.227,2.351-.75,2.969-1.569.479-.605.719-1.809.719-3.612v-7.091h-13.293v7.091c0,1.072.066,1.882.198,2.43s.369,1.012.709,1.39c.63.706,1.563,1.16,2.799,1.361v.586h-11.781Zm2.647-.964h5.521l-.737-.548c-.429-.315-.703-.567-.823-.756-.12-.189-.18-.473-.18-.851,0-.202-.003-.337-.009-.407-.006-.069-.009-.142-.009-.217v-18.324c0-.076.003-.151.009-.227s.009-.208.009-.397c0-.378.06-.662.18-.851.12-.189.394-.441.823-.756l1.078-.794h-6.202l1.078.794c.429.315.703.567.823.756.12.189.18.473.18.851.012.215.019.423.019.624v18.324c0,.202-.006.41-.019.624,0,.391-.057.678-.17.86-.113.183-.391.432-.832.747l-.737.548Zm17.681,0h5.521l-.737-.548c-.429-.315-.703-.567-.823-.756-.12-.189-.18-.473-.18-.851,0-.366-.006-.574-.019-.624v-18.324c.013-.063.019-.271.019-.624,0-.378.06-.662.18-.851.12-.189.394-.441.823-.756l1.078-.794h-6.202l1.078.794c.429.315.703.567.823.756.12.189.18.473.18.851.012.215.019.423.019.624v18.324c0,.202-.006.41-.019.624,0,.391-.057.678-.17.86-.113.183-.391.432-.832.747l-.737.548Z"/><path d="m81.173,53.035h-.567l-20.763-22.105.019,12.688c0,1.412.082,2.547.246,3.404.164.857.428,1.595.794,2.212.857,1.387,2.25,2.257,4.179,2.609v.586h-9.89v-.586c1.702-.63,2.836-1.821,3.404-3.574.201-.58.34-1.22.416-1.919s.113-1.585.113-2.657v-13.54c-.983-1.008-1.74-1.702-2.269-2.08-.53-.378-1.135-.668-1.815-.87v-.586h7.337c.303.53.63,1.009.983,1.438.076.063.211.214.407.454.195.24.324.397.388.473l.321.359,15.979,17.076v-13.01c0-1.323-.167-2.411-.501-3.262s-.857-1.51-1.569-1.976c-.712-.466-1.655-.788-2.827-.964v-.586h9.02v.586c-1.349.366-2.253.971-2.713,1.815-.46.845-.69,2.307-.69,4.387v19.628Zm-.719-1.191v-2.969l-17.737-18.947c-.807-.845-1.456-1.708-1.948-2.591h-3.857c.92.555,1.859,1.349,2.817,2.383l20.725,22.124Zm-19.345-.378c-.504-.555-.886-1.037-1.144-1.447-.258-.409-.501-.917-.728-1.522-.239.643-.498,1.175-.775,1.598-.278.422-.681.879-1.21,1.371h3.857Zm17.038-24.129c.605.303,1.065.612,1.38.927.315.315.624.775.926,1.38.227-.605.416-1.04.567-1.305.151-.265.403-.599.756-1.002h-3.63Z"/></svg>